<?xml version="1.0" encoding="UTF-8"?>
<svg xmlns="http://www.w3.org/2000/svg" viewBox="0 0 512 512" width="512" height="512">
  <defs>
    <linearGradient id="pGrad" x1="0%" y1="0%" x2="100%" y2="100%">
      <stop offset="0%" stop-color="#FFE100"/>
      <stop offset="100%" stop-color="#F97316"/>
    </linearGradient>
  </defs>
  <g fill="url(#pGrad)">
    <path transform="translate(64.2700,403.0000) scale(0.420000,-0.420000)" d="M892 450Q892 381 858.5 324.5Q825 268 768.0 234.0Q711 200 642 200H240V299H642Q684 299 718.0 319.5Q752 340 772.0 374.5Q792 409 792 450Q792 492 772.0 526.0Q752 560 718.0 580.0Q684 600 642 600H184V0H84V700H642Q711 700 768.0 666.5Q825 633 858.5 576.0Q892 519 892 450Z"/>
  </g>
</svg>