<?xml version="1.0" encoding="UTF-8"?>
<svg xmlns="http://www.w3.org/2000/svg" viewBox="0 0 428 80" width="428" height="80">
  <defs>
    <linearGradient id="logoGrad" x1="0%" y1="0%" x2="100%" y2="0%">
      <stop offset="0%" stop-color="#FFE100"/>
      <stop offset="100%" stop-color="#F97316"/>
    </linearGradient>
  </defs>
  <g fill="url(#logoGrad)">
        <path transform="translate(10.0000,58.0000) scale(0.056000,-0.056000)" d="M892 450Q892 381 858.5 324.5Q825 268 768.0 234.0Q711 200 642 200H240V299H642Q684 299 718.0 319.5Q752 340 772.0 374.5Q792 409 792 450Q792 492 772.0 526.0Q752 560 718.0 580.0Q684 600 642 600H184V0H84V700H642Q711 700 768.0 666.5Q825 633 858.5 576.0Q892 519 892 450Z"/>
    <path transform="translate(63.1280,58.0000) scale(0.056000,-0.056000)" d="M598 0H72V550H172V100H598Z"/>
    <path transform="translate(99.3440,58.0000) scale(0.056000,-0.056000)" d="M701 0H601V151H216V253H601V451H341Q292 451 252.0 427.0Q212 403 188.0 363.5Q164 324 164 275V0H63V275Q63 332 84.5 382.5Q106 433 144.5 471.0Q183 509 233.5 530.5Q284 552 341 552H701Z"/>
    <path transform="translate(144.6320,58.0000) scale(0.056000,-0.056000)" d="M577 0Q577 66 551.5 126.5Q526 187 483.0 239.0Q440 291 387.0 333.0Q334 375 278.5 403.0Q223 431 172 443V0H72V550H126V549Q180 546 240.5 525.5Q301 505 362.0 469.0Q423 433 478.5 385.0Q534 337 577 278V550H677V0Z"/>
    <path transform="translate(188.5760,58.0000) scale(0.056000,-0.056000)" d="M701 0H601V151H216V253H601V451H341Q292 451 252.0 427.0Q212 403 188.0 363.5Q164 324 164 275V0H63V275Q63 332 84.5 382.5Q106 433 144.5 471.0Q183 509 233.5 530.5Q284 552 341 552H701Z"/>
    <path transform="translate(233.8640,58.0000) scale(0.056000,-0.056000)" d="M675 162Q675 117 653.5 80.5Q632 44 595.0 22.0Q558 0 513 0H46V100H513Q539 100 557.5 118.0Q576 136 576 162Q576 188 557.5 206.5Q539 225 513 225H207Q163 225 126.5 247.0Q90 269 68.0 306.0Q46 343 46 388Q46 432 68.0 469.0Q90 506 126.5 528.0Q163 550 207 550H638V451H207Q182 451 163.5 432.5Q145 414 145 388Q145 362 163.5 343.5Q182 325 207 325H513Q558 325 595.0 303.0Q632 281 653.5 244.0Q675 207 675 162Z"/>
    <path transform="translate(275.4560,58.0000) scale(0.056000,-0.056000)" d="M720 276Q720 200 688.5 137.5Q657 75 600.0 37.5Q543 0 467 0H293Q217 0 159.5 37.5Q102 75 70.5 137.5Q39 200 39 276Q39 352 70.5 414.0Q102 476 159.5 513.0Q217 550 293 550H467Q543 550 600.0 513.0Q657 476 688.5 414.0Q720 352 720 276ZM620 276Q620 324 602.0 364.0Q584 404 549.5 427.5Q515 451 467 451H293Q245 451 210.5 427.5Q176 404 157.5 364.0Q139 324 139 276Q139 228 157.5 188.0Q176 148 210.5 124.0Q245 100 293 100H467Q515 100 549.5 124.0Q584 148 602.0 188.0Q620 228 620 276Z"/>
    <path transform="translate(319.9600,58.0000) scale(0.056000,-0.056000)" d="M577 0Q577 66 551.5 126.5Q526 187 483.0 239.0Q440 291 387.0 333.0Q334 375 278.5 403.0Q223 431 172 443V0H72V550H126V549Q180 546 240.5 525.5Q301 505 362.0 469.0Q423 433 478.5 385.0Q534 337 577 278V550H677V0Z"/>
    <path transform="translate(363.9040,58.0000) scale(0.056000,-0.056000)" d="M171 0H72V550H171Z"/>
    <path transform="translate(379.5120,58.0000) scale(0.056000,-0.056000)" d="M671 0H540L340 206L140 0H8L274 274L8 550H140ZM671 550 434 304 369 372 540 550Z"/>
  </g>
</svg>
